<svg width="122" height="70" viewBox="0 0 122 70" xmlns="http://www.w3.org/2000/svg" xmlns:xlink="http://www.w3.org/1999/xlink"><svg aria-hidden="true" data-prefix="fas" data-icon="caret-right" class="asvg-inline--fa afa-caret-right afa-w-6" viewBox="-341.33 -341.33 874.67 1194.67" width="25.63" height="35" id="caret-right-solid" xmlns="http://www.w3.org/2000/svg"><path fill="currentColor" d="M0 384.662V127.338c0-17.818 21.543-26.741 34.142-14.142l128.662 128.662c7.81 7.81 7.81 20.474 0 28.284L34.142 398.804C21.543 411.404 0 402.48 0 384.662z"/></svg><svg data-prefix="fab" data-icon="facebook-f" class="bsvg-inline--fa bfa-facebook-f bfa-w-9" viewBox="-341.33 -341.33 946.67 1194.67" width="27.73" height="35" id="facebook-f-brands" x="25.63" xmlns="http://www.w3.org/2000/svg"><path fill="currentColor" d="M76.7 512V283H0v-91h76.7v-71.7C76.7 42.4 124.3 0 193.8 0c33.3 0 61.9 2.5 70.2 3.6V85h-48.2c-37.8 0-45.1 18-45.1 44.3V192H256l-11.7 91h-73.6v229"/></svg><svg width="32.85" height="35" viewBox="-200 -200 657 700" id="menu" x="53.36" xmlns="http://www.w3.org/2000/svg"><path d="M257.143 225v21.429c0 5.859-4.855 10.714-10.714 10.714H10.715c-5.859 0-10.714-4.855-10.714-10.714V225c0-5.859 4.855-10.714 10.714-10.714h235.714c5.859 0 10.714 4.855 10.714 10.714zm0-85.714v21.429c0 5.859-4.855 10.714-10.714 10.714H10.715c-5.859 0-10.714-4.855-10.714-10.714v-21.429c0-5.859 4.855-10.714 10.714-10.714h235.714c5.859 0 10.714 4.855 10.714 10.714zm0-85.715V75c0 5.859-4.855 10.714-10.714 10.714H10.715C4.856 85.714.001 80.859.001 75V53.571c0-5.859 4.855-10.714 10.714-10.714h235.714c5.859 0 10.714 4.855 10.714 10.714z"/></svg><svg data-prefix="fas" data-icon="play" class="dsvg-inline--fa dfa-play dfa-w-14" viewBox="-341.33 -341.33 1130.67 1194.67" width="33.13" height="35" id="play-solid" y="35" xmlns="http://www.w3.org/2000/svg"><path fill="currentColor" d="M424.4 214.7L72.4 6.6C43.8-10.3 0 6.1 0 47.9V464c0 37.5 40.7 60.1 72.4 41.3l352-208c31.4-18.5 31.5-64.1 0-82.6z"/></svg><svg aria-hidden="true" data-prefix="far" data-icon="search" class="esvg-inline--fa efa-search efa-w-16" viewBox="-341.33 -341.33 1194.67 1194.67" width="35" height="35" id="search" x="33.13" y="35" xmlns="http://www.w3.org/2000/svg"><path fill="currentColor" d="M508.5 468.9L387.1 347.5c-2.3-2.3-5.3-3.5-8.5-3.5h-13.2c31.5-36.5 50.6-84 50.6-136C416 93.1 322.9 0 208 0S0 93.1 0 208s93.1 208 208 208c52 0 99.5-19.1 136-50.6v13.2c0 3.2 1.3 6.2 3.5 8.5l121.4 121.4c4.7 4.7 12.3 4.7 17 0l22.6-22.6c4.7-4.7 4.7-12.3 0-17zM208 368c-88.4 0-160-71.6-160-160S119.6 48 208 48s160 71.6 160 160-71.6 160-160 160z"/></svg><svg data-prefix="fab" data-icon="twitter" class="fsvg-inline--fa ffa-twitter ffa-w-16" viewBox="-341.33 -341.33 1194.67 1194.67" width="35" height="35" id="twitter-brands" x="86.21000000000001" xmlns="http://www.w3.org/2000/svg"><path fill="currentColor" d="M459.37 151.716c.325 4.548.325 9.097.325 13.645 0 138.72-105.583 298.558-298.558 298.558-59.452 0-114.68-17.219-161.137-47.106 8.447.974 16.568 1.299 25.34 1.299 49.055 0 94.213-16.568 130.274-44.832-46.132-.975-84.792-31.188-98.112-72.772 6.498.974 12.995 1.624 19.818 1.624 9.421 0 18.843-1.3 27.614-3.573-48.081-9.747-84.143-51.98-84.143-102.985v-1.299c13.969 7.797 30.214 12.67 47.431 13.319-28.264-18.843-46.781-51.005-46.781-87.391 0-19.492 5.197-37.36 14.294-52.954 51.655 63.675 129.3 105.258 216.365 109.807-1.624-7.797-2.599-15.918-2.599-24.04 0-57.828 46.782-104.934 104.934-104.934 30.213 0 57.502 12.67 76.67 33.137 23.715-4.548 46.456-13.32 66.599-25.34-7.798 24.366-24.366 44.833-46.132 57.827 21.117-2.273 41.584-8.122 60.426-16.243-14.292 20.791-32.161 39.308-52.628 54.253z"/></svg></svg>