<svg id="Layer_1" data-name="Layer 1" xmlns="http://www.w3.org/2000/svg" viewBox="0 0 491.76 73.16"><defs><style>.cls-1,.cls-2{fill:#fff;}.cls-2{fill-rule:evenodd;}.cls-3{fill:#eeb111;}</style></defs><title>Artboard 1</title><path class="cls-1" d="M98.1,45c1.43,3.54,1.79,5,2.56,5,.56,0,.92-.26,1.28-1.28l5.74-14.25c.15-.36.36-.36.46-.36s.26.2.36.46l5.64,13.48c.71,1.64.92,1.95,1.38,1.95.77,0,1.18-1,1.49-1.7l13.17-31c1.69-4.05,3-2.66,3-3.79,0-.56-.26-.56-.62-.56-1.18,0-2.71.2-4.25.2-1.23,0-2.41-.2-3.59-.2-.35,0-.56.35-.56.77,0,1,3.33.66,3.33,2.87a3.84,3.84,0,0,1-.36,1.69l-9.33,23c-.46,1.13-.76,1.9-1.12,1.9s-.62-.41-1.13-1.59l-4.3-10.61a9.24,9.24,0,0,1-.67-2.46,4.68,4.68,0,0,1,.46-1.94l3.64-8.41c2.31-5.38,3.54-3.43,3.54-4.87,0-.15-.21-.3-.36-.3-.87,0-1.49.2-3.74.2-1.13,0-2.21-.2-3.34-.2-.3,0-1,0-1,.46,0,1.12,3,.82,3,3a6,6,0,0,1-.46,1.85l-2.51,6c-.31.72-.56,1.28-.72,1.28s-.25-.36-.66-1.33l-2.67-6.76a3.47,3.47,0,0,1-.36-1.54c0-1.69,2.1-1.54,2.1-2.36,0-.31-.1-.61-.3-.61-1.13,0-2.52.2-5,.2-.72,0-3.44-.2-5.18-.2-.46,0-.77.05-.77.56,0,1.74,3.59-.1,5,3.28L106.3,29.1a6.87,6.87,0,0,1,.51,1.59,7.68,7.68,0,0,1-.61,2.1l-3.8,9c-.2.56-.46.92-.71.92s-.67-.77-.88-1.33L91.08,17.31A3.42,3.42,0,0,1,90.77,16c0-1.74,2.2-1.74,2.2-2.51,0-.36-.1-.61-.41-.61-1.22,0-2.46.2-3.69.2-1.48,0-3-.2-4.51-.2-.51,0-1.17.2-1.17.82,0,1,2.46.36,3.69,3.38L98.1,45Z"/><path class="cls-2" d="M128.31,34.63c0-2.82,2.25-6.46,5.43-6.46,2.82,0,5.69,2.57,5.69,5.44,0,.77-.31,1-1,1ZM141.94,36c1.18,0,1.74,0,1.74-.87,0-2.06-2.76-8.15-9.07-8.15s-10,5.48-10,12c0,3.38,2.66,10.5,10.35,10.5,4.61,0,9.07-3.69,9.07-4.86,0-.16,0-.36-.2-.36-1.13,0-2.82,2.66-7.23,2.66-3.13,0-8.25-2.51-8.25-11Z"/><path class="cls-1" d="M152.34,39.5c2,1,4.66,1.8,4.66,4.51s-2.05,4.2-4.56,4.2c-5.53,0-5-6.76-6.09-6.76-.77,0-.62,1.64-.62,2.51,0,4,0,4.1,1.13,4.1s2.15,1.48,5.73,1.48a7,7,0,0,0,6.92-7c0-3.28-1.33-4.88-4.25-6.1-5.38-2.15-6.71-3.23-6.71-4.92,0-2.1,1.59-3.28,3.58-3.28,4.67,0,5.13,4.45,5.64,4.45.77,0,.56-.61.56-2a7.1,7.1,0,0,0-.25-2.52c-.62-.76-4.15-1.17-5-1.17-3.75,0-6.92,2.05-6.92,6.15,0,3.63,3.43,5,6.2,6.35Z"/><path class="cls-2" d="M163,43.6c0,5.28,3.39,5.94,5.74,5.94,3.59,0,6.36-1.74,6.36-2.51,0-.41-.21-.46-.41-.46-.87,0-1.64,1.18-4.36,1.18-2.05,0-3.48-1-3.59-3.07V29.76h6.67l.7-1.87c.15-.25-.45-.22-1.73-.22h-5.64c0-3.7.05-4.77-.66-4.77-.41,0-.83-.29-1,1.29-.43,3.41-3.2,4.74-3.23,5.14.27-.27-1,.55,1.18.43V43.6Z"/><path class="cls-1" d="M188.6,46.78c.46,1.07,1.08,3.23,1.9,3.23s1.12-1.7,1.69-3L205,16.85c1.43-3.43,2.87-2.15,2.87-3.28,0-.46-.31-.66-.87-.66-.72,0-1.49.2-3.95.2-1.13,0-2.25-.2-3.38-.2-.52,0-.77.15-.77.66,0,1.18,3.28.21,3.28,2.57a7.61,7.61,0,0,1-.72,3.48l-8.92,22c-.25.62-.4,1.43-.92,1.43s-.92-1.17-2-3.89l-9-21.11a5.35,5.35,0,0,1-.47-2c0-1.84,2.16-1.89,2.1-2.61,0-.31-.4-.51-.71-.51-.72,0-2.67.2-4,.2-1.54,0-3.13-.2-4.71-.2a.64.64,0,0,0-.72.71c0,1.13,2.66.16,3.95,3.23L188.6,46.78Z"/><path class="cls-1" d="M247.42,19.57c-.61,0-2.15,2.15-2.15,2.71S246.81,25,247.42,25s2.16-2.05,2.16-2.67-1.49-2.71-2.16-2.71Z"/><path class="cls-1" d="M282.51,19.29c-.61,0-2.15,2.15-2.15,2.71s1.54,2.67,2.15,2.67,2.15-2.05,2.15-2.67-1.49-2.71-2.15-2.71Z"/><path class="cls-2" d="M301.36,36.74c-12,2-12.86,5.22-12.86,7.94,0,3.63,2.2,4.86,5.53,4.86a12.15,12.15,0,0,0,7.84-3,4,4,0,0,0,4,2.62c.72,0,3-.21,3-1.29,0-.36-.41-.36-.66-.36s-.67.11-.88.11c-2.66,0-2.2-3-2.2-4.77V32.27c0-4.35-4.92-5.27-8.09-5.27-5.69-.15-8.56,3.43-8.61,5.79,0,.92,1.54,1.69,2.41,1.69s1.12-.41,1.12-1-.3-1.34-.3-2.11c0-2.82,2-3.07,4.45-3.07,3.18,0,5.28,1.79,5.28,4.46v4Zm0,7.17c0,2.71-3.48,4.15-5.33,4.15-2.71,0-4.2-1.13-4.2-4.05,0-4.51,6.25-5.33,9.53-6v5.95Z"/><path class="cls-2" d="M211.39,48c-.44,0-3.8,0-3.8-2.2V27.41c0-.51-.3-.82-.61-.82-1.18,0-2.2,1.64-5.48,2.56a.56.56,0,0,0-.46.57c0,1.07,2.81-.26,2.81,2.81v12.1c0,4.66-2.25,2.71-2.25,4,.05.51.36.57.77.57.56,0,1.89-.21,3.53-.21,2.1,0,3.69.21,4.77.21h.92A41.11,41.11,0,0,1,216.3,49c2.87,0,4.1.21,4.82.21.56,0,.82-.11.82-.57,0-1.64-4.57.82-4.57-3.94l0-11.42c0-.67,4.08-7.85,10.33-7.57,1.84.08,1.54.17,2.76-1.74.52-.83-1.88-.82-2.95-.73-6.89.54-8.42,5.24-10.14,7.72v-.11l0-3.42c0-.51-.3-.82-.61-.82-1.18,0-2.2,1.64-6.15,2.56-.26.05-.67.26-.67.57,0,1.07,3.7-.26,3.7,2.81V45.75A2.38,2.38,0,0,1,211.39,48Z"/><path class="cls-1" d="M278.42,48c-.5,0-3.84.19-3.84-2.92V36.58c0-3.9-1.49-9.58-8.35-9.58-5,0-7.54,4.4-7.43,3.79V27.41c0-.51-.31-.82-.62-.82-1.18,0-2.2,1.64-6.46,2.56a.57.57,0,0,0-.46.57c0,1.07,3.79-.26,3.79,2.81V45.24a2.36,2.36,0,0,1-2.51,2.66c-.34-.07-3.48-.08-3.48-2.09V27.41c0-.51-.3-.82-.61-.82-1.18,0-2.2,1.64-5.48,2.56-.26.05-.9,1.78-.59,1.74,1.68-.19,2.94-1.43,2.94,1.64v12.1c0,4.66-2.25,2.71-2.25,4,.05.51.36.57.77.57.56,0,1.89-.21,3.53-.21,2.11,0,3.69.21,4.77.21a3.61,3.61,0,0,0,.47,0H253c.62,0,1.64-.21,4.36-.21,3,0,4,.21,4.87.21s1.13-.11,1.13-.72c0-1.38-4.51.1-4.51-3.43V33.25c-.06-.82,1.74-4,6-4s6,3.84,6,6.41v9.58c0,3.33-2.21,2.3-2.21,3.33,0,.51.26.62.93.62s1.74-.21,3.69-.21c2.51,0,3.79.21,4.45.21h1.18c.57,0,1.9-.21,3.54-.21,2.1,0,3.69.21,4.76.21.67,0,1-.16,1-.57,0-1.33-4-.2-4-2.81V27.41c0-.51-.31-.82-.62-.82-1.18,0-2.2,1.64-5.48,2.56a.56.56,0,0,0-.46.57c0,1.07,2.82-.26,2.82,2.81v12.1c0,3.46-1.29,3.25-1.95,3.33Z"/><path class="cls-1" d="M232.33,41.56c-3.6,0-4.87-3.54-4.87-6.57,0-2.71.81-6,4.67-6,3.6,0,4.88,3.65,4.88,6.78,0,1.72-.46,5.74-4.68,5.74Zm12.86-12.39a1.07,1.07,0,0,0-.92-.38l-.12,0a12.38,12.38,0,0,1-4.07.85,3.4,3.4,0,0,1-1.53-.28,10.38,10.38,0,0,1-1.12-.65c-1.17-.73-2.18-1.37-5.54-1.37a8.32,8.32,0,0,0-8.6,8.4,7.78,7.78,0,0,0,3.07,6.35c-.76.72-2.46,2.43-2.46,4.2,0,2.24.8,3.83,2.14,4.35,1.14.63,3.37,1,6.81,1.12,5.55.16,6.73.36,6.73,2.06,0,.79-.39,4.73-8.15,4.73-2,0-6.53-.37-6.53-3.82a2.38,2.38,0,0,1,.7-2.07.75.75,0,0,0,.1-.81.93.93,0,0,0-.86-.5,1.06,1.06,0,0,0-.28,0,3,3,0,0,0-2.45,3.26c0,4.57,5.89,5.78,9,5.78,8.58,0,11.62-4.22,11.62-7.83,0-4.92-5.32-4.92-8.18-4.92H232.3c-3.55,0-4.89-.62-5.39-1.14a1.14,1.14,0,0,1-.31-1c0-1,1.09-2.47,2.11-2.47a2.08,2.08,0,0,1,.55.1,10.73,10.73,0,0,0,3,.31c5.13,0,8.85-3.44,8.85-8.19a12.19,12.19,0,0,0-.39-2.86c-.09-.2-.19-.39-.26-.55s-.14-.27-.19-.39c1.74-.18,4.75-.89,4.84-1.48a.91.91,0,0,0,.09-.89Z"/><path class="cls-2" d="M420.48,48a.61.61,0,0,0,0,1.12c.2.1-.1,0,.06,0h.34a43.37,43.37,0,0,1,4.71-.2c2.88,0,4.1.2,4.82.2.56,0,.82-.1.82-.56,0-1.64-4.56.82-4.56-4l0-11.41c0-.67,4.08-7.85,10.32-7.57,1.85.08,1.55.16,2.76-1.75.52-.82-1.87-.81-2.95-.73-6.88.55-8.41,5.24-10.13,7.72v-.1l0-3.42c0-.52-.31-.83-.62-.83-1.17,0-2.2,1.64-6.14,2.57-.26,0-.67.25-.67.56,0,1.08,3.69-.25,3.69,2.82V45.7c0,1.6-1.94,2.1-2.5,2.31Z"/><path class="cls-2" d="M487.42,31c1-3.08,2.77-1.8,2.77-3,0-.41-.36-.61-1-.61s-1.43.2-2.61.2c-1.43,0-2.25-.2-2.87-.2-.92,0-1.54.05-1.54.56,0,1.13,3.28.36,3.28,3.13a7.71,7.71,0,0,1-.61,2.66c-3.47,11.07-3.95,11.58-3.95,11.58l-5.48-13.93.1-.11c.11.47-.36-.3-.36-1.12,0-2.05,2.93-1,2.93-2.11,0-.56-.31-.66-1.08-.66s-2,.2-3.79.2c-1.39,0-2.52-.11-3.6-.11-.71,0-.78.07-1,.52-1.35,2.61,1.9.85,2.4,1.9l6.72,16.55a9,9,0,0,1,1,3.43c0,4-4.83,12.82-12.62,11.77-.27,0-.88-.21-1.12.11.22.06-.71-.24.89,2.13.58.45,1.66.69,3.49.28,5.27-1.16,8.85-6.45,8.9-6.61,2.73-4,9.12-26.58,9.12-26.58Z"/><path class="cls-1" d="M316.33,17c0-3.69,3.43-2.25,3.43-3.69,0-.61-1.38-.51-1.64-.51-1.59,0-3.22.21-4.87.21-1.38,0-2.66-.21-4-.21-.26,0-1.13.15-1.13.51,0,1.64,4.15.41,4.15,3.43V34.05c0,7.9,2.57,15.43,16,15.43,14.91,0,14.29-12.66,14.29-15.17V18.42c0-4.71,3-3.58,3-5,0-.31-.41-.56-.67-.56-.92,0-1.84.21-2.82.21-2,0-4-.21-6-.21-.16,0-.51.25-.51.51,0,2,4.76-.2,4.76,5V35c0,6-2.2,12.39-11.84,12.39-6.91,0-12.24-3.73-12.24-11.93V17Z"/><path class="cls-2" d="M403.9,34.57c0-2.82,2.26-6.46,5.43-6.46,2.82,0,5.69,2.56,5.69,5.43,0,.77-.3,1-1,1ZM417.53,36c1.18,0,1.74,0,1.74-.87,0-2-2.76-8.15-9.07-8.15s-10,5.48-10,12c0,3.38,2.67,10.51,10.36,10.51,4.61,0,9.06-3.69,9.06-4.87,0-.16,0-.36-.2-.36-1.13,0-2.82,2.66-7.23,2.66-3.12,0-8.25-2.5-8.25-11Z"/><path class="cls-1" d="M440.2,39.43c2.05,1,4.66,1.8,4.66,4.51s-2.05,4.2-4.56,4.2c-5.53,0-5-6.76-6.09-6.76-.77,0-.62,1.64-.62,2.51,0,4,0,4.1,1.13,4.1s2.15,1.49,5.74,1.49a7,7,0,0,0,6.91-7c0-3.28-1.33-4.87-4.25-6.1-5.38-2.15-6.71-3.23-6.71-4.92,0-2.1,1.59-3.28,3.59-3.28,4.66,0,5.12,4.46,5.63,4.46.77,0,.57-.62.57-2a7.05,7.05,0,0,0-.26-2.51c-.62-.77-4.15-1.18-5-1.18-3.74,0-6.92,2.05-6.92,6.15,0,3.64,3.43,5,6.2,6.35Z"/><path class="cls-2" d="M460.53,43.53c0,5.28,3.38,5.95,5.74,5.95,3.58,0,6.35-1.75,6.35-2.51,0-.42-.2-.47-.41-.47-.87,0-1.64,1.18-4.35,1.18-2.05,0-3.49-1-3.59-3.07V29.7h6.66l.7-1.88c.15-.25-.44-.22-1.72-.22h-5.64c0-3.69.05-4.77-.67-4.77-.41,0-.83-.29-1,1.29-.43,3.41-3.2,4.75-3.23,5.14.27-.27-.95.55,1.19.44V43.53Z"/><path class="cls-1" d="M387.09,32.26a15.22,15.22,0,0,1-.85-2.48c0-1.51,2.87-.86,2.87-1.87,0-.56-.45-.56-1.16-.56s-1.26.2-3.13.2c-3.34,0-3.34-.2-4.29-.2s-1.06.26-1.06.61c0,.91,1.81.15,2.77,2.42l7.63,17.44c.15.36.36,1.21,1,1.21s.76-.6,1.72-2.68L400.33,30c.71-1.52,2.53-1.21,2.53-1.87s-.86-.76-1.36-.76c-.86,0-1.77.2-2.63.2-1.11,0-2.07-.2-3.13-.2-.66,0-1.22,0-1.22.66,0,1.26,3.13-.15,3.13,2.68,0,2.27-1.26,4.39-2.21,6.42l-3.39,7.27-5-12.12Z"/><path class="cls-1" d="M371.82,49.13c.17,0,.24,0,.47,0,.56,0,1.89-.21,3.53-.21,2.1,0,3.69.21,4.77.21.66,0,1-.16,1-.57,0-1.33-4.05-.2-4.05-2.81V27.34c0-.51-.31-.82-.61-.82-1.18,0-2.21,1.64-5.49,2.56a.56.56,0,0,0-.46.57c0,1.07,2.82-.26,2.82,2.81v12.1c0,3.49-1.32,3.3-1.89,3.33-.19,0-3.9.23-3.9-2.92V36.51c0-3.89-1.48-9.58-8.35-9.58-5,0-7.53,4.41-7.43,3.79V27.34c0-.51-.31-.82-.62-.82-1.17,0-2.2,1.64-6.45,2.56a.56.56,0,0,0-.46.57c0,1.07,3.79-.26,3.79,2.81V45.17c0,3.33-3,2.31-3,3.33,0,.51.25.62.91.62s1.65-.21,4.36-.21c3,0,4,.21,4.87.21s1.13-.11,1.13-.72c0-1.38-4.51.1-4.51-3.43V33.18c-.05-.82,1.74-4,6-4s6,3.85,6,6.41v9.58c0,3.33-2.2,2.31-2.2,3.33,0,.51.26.62.92.62s1.74-.21,3.69-.21c2.51,0,3.79.21,4.46.21Z"/><path class="cls-1" d="M376,19.65c-.61,0-2.15,2.15-2.15,2.71S375.36,25,376,25s2.15-2.05,2.15-2.67-1.48-2.71-2.15-2.71Z"/><path class="cls-1" d="M451.3,44.35c0,4.66-2.26,2.71-2.26,4,0,.52.36.57.77.57s1.9-.2,3.54-.2c2.09,0,3.69.2,4.76.2.66,0,1-.16,1-.57,0-1.33-4-.2-4-2.81V27.13c0-.51-.31-.82-.62-.82-1.18,0-2.2,1.64-5.48,2.57a.55.55,0,0,0-.46.56c0,1.07,2.82-.26,2.82,2.82V44.35Z"/><path class="cls-1" d="M453.34,19.65c-.62,0-2.15,2.15-2.15,2.71S452.72,25,453.34,25s2.15-2.05,2.15-2.67-1.49-2.71-2.15-2.71Z"/><path class="cls-1" d="M487.48,46.79V45.55h.83c.43,0,.88.09.88.59s-.46.65-1,.65Zm0,.52h.7l1.07,1.76h.68l-1.15-1.78a1.06,1.06,0,0,0,1.05-1.11c0-.8-.47-1.15-1.43-1.15h-1.53v4h.61V47.31ZM485.37,47A2.84,2.84,0,1,1,488.22,50,2.83,2.83,0,0,1,485.37,47Zm2.85,3.51A3.51,3.51,0,1,0,484.66,47a3.5,3.5,0,0,0,3.56,3.51Z"/><path class="cls-3" d="M77.31.57H63.59c-2.39,0-3.26.85-4,1.95L49.45,17.6,39.72,2.83l-.33-.48a1,1,0,0,0-.73-.45h0a1,1,0,0,0-.74.45l-.32.48L28.18,17.6,17.7,2.53c-.72-1.1-1.58-2-4-1.95H0v12.3H7.62c1.61,0,2.35.06,3.45,1.39l.46.67L26.91,39a1.77,1.77,0,0,0,1.35.78A1.81,1.81,0,0,0,29.69,39l9-13.45h0L48,39a1.86,1.86,0,0,0,1.31.82,1.63,1.63,0,0,0,1.32-.8L65.79,14.93l.45-.67C67,13,68,12.89,69.63,12.91h7.62L77.31.57Z"/><path class="cls-3" d="M57.8,34.77,49.5,47.93,38.82,32.43,30.59,44.8,47.93,72c.6.75,1.07.91,1.32.91.52,0,.82-.25,1.39-1.21L64.26,46.87a3.89,3.89,0,0,1,3.23-2.13h9.82V32.45H62a5.14,5.14,0,0,0-4.18,2.32Z"/></svg>