<?xml version="1.0" encoding="utf-8"?>
<!-- Generator: Adobe Illustrator 22.0.1, SVG Export Plug-In . SVG Version: 6.00 Build 0)  -->
<svg version="1.1" id="Layer_1" xmlns="http://www.w3.org/2000/svg" xmlns:xlink="http://www.w3.org/1999/xlink" x="0px" y="0px"
	 viewBox="0 0 447.3 189.8" style="enable-background:new 0 0 447.3 189.8;" xml:space="preserve">
<style type="text/css">
	.st0{opacity:0.79;}
	.st1{fill:#2C2A29;}
</style>
<title>Artboard 1</title>
<g class="st0">
	
		<rect x="186.6" y="-22.9" transform="matrix(0.8572 -0.515 0.515 0.8572 -20.9067 112.4498)" class="st1" width="11.4" height="233.6"/>
	<polygon class="st1" points="244.9,17.4 276.4,69.9 320.4,-3.3 310.7,-9.1 276.4,47.9 244.9,-4.6 213.3,47.9 179.1,-9.1 
		169.4,-3.3 213.3,69.9 	"/>
	<polygon class="st1" points="394.8,-9.1 276.4,187.9 220,93.9 223.9,87.4 276.4,175 383.5,-3.3 373.8,-9.1 276.4,152.9 230.5,76.4 
		234.4,69.9 276.4,140 362.5,-3.3 352.8,-9.1 276.4,117.9 241,58.9 244.9,52.4 276.4,104.9 341.5,-3.3 331.7,-9.1 276.4,82.9 
		244.9,30.4 213.3,82.9 158.1,-9.1 148.3,-3.3 208.5,96.8 268.6,197 276.4,192.2 284.3,197 404.6,-3.3 	"/>
	<polygon class="st1" points="299.4,-3.3 289.6,-9.1 276.4,12.9 263.2,-9.1 253.5,-3.3 276.4,34.9 	"/>
	<polygon class="st1" points="236.3,-3.3 226.5,-9.1 213.3,12.9 200.1,-9.1 190.4,-3.3 213.3,34.9 	"/>
	
		<rect x="243.8" y="88.2" transform="matrix(0.515 -0.8572 0.8572 0.515 94.3729 354.6393)" class="st1" width="233.6" height="11.4"/>
	
		<rect x="102.5" y="-22.9" transform="matrix(0.8572 -0.515 0.515 0.8572 -32.9264 69.1091)" class="st1" width="11.4" height="233.6"/>
	
		<rect x="123.5" y="-22.9" transform="matrix(0.8572 -0.515 0.515 0.8572 -29.9224 79.9485)" class="st1" width="11.4" height="233.6"/>
	
		<rect x="144.5" y="-22.9" transform="matrix(0.8572 -0.515 0.515 0.8572 -26.9185 90.7776)" class="st1" width="11.4" height="233.6"/>
	
		<rect x="165.6" y="-22.9" transform="matrix(0.8572 -0.515 0.515 0.8572 -23.9145 101.617)" class="st1" width="11.4" height="233.6"/>
	
		<rect x="18.3" y="-22.9" transform="matrix(0.8572 -0.515 0.515 0.8572 -44.9461 25.7684)" class="st1" width="11.4" height="233.6"/>
	
		<rect x="39.4" y="-22.9" transform="matrix(0.8572 -0.515 0.515 0.8572 -41.9421 36.6078)" class="st1" width="11.4" height="233.6"/>
	
		<rect x="60.4" y="-22.9" transform="matrix(0.8572 -0.515 0.515 0.8572 -38.9382 47.4369)" class="st1" width="11.4" height="233.6"/>
	
		<rect x="81.4" y="-22.9" transform="matrix(0.8572 -0.515 0.515 0.8572 -35.9342 58.2763)" class="st1" width="11.4" height="233.6"/>
	
		<rect x="308.7" y="87.5" transform="matrix(0.5174 -0.8557 0.8557 0.5174 125.8744 409.5812)" class="st1" width="234.7" height="11.4"/>
	
		<rect x="285.9" y="88.2" transform="matrix(0.515 -0.8572 0.8572 0.515 114.7665 390.7026)" class="st1" width="233.6" height="11.4"/>
	
		<rect x="264.8" y="88.2" transform="matrix(0.515 -0.8572 0.8572 0.515 104.569 372.6684)" class="st1" width="233.6" height="11.4"/>
</g>
</svg>
