<?xml version="1.0" encoding="utf-8"?>
<!-- Generator: Adobe Illustrator 22.0.1, SVG Export Plug-In . SVG Version: 6.00 Build 0)  -->
<svg version="1.1" id="Layer_1" xmlns="http://www.w3.org/2000/svg" xmlns:xlink="http://www.w3.org/1999/xlink" x="0px" y="0px"
	 viewBox="0 0 393.3 139.5" style="enable-background:new 0 0 393.3 139.5;" xml:space="preserve">
<style type="text/css">
	.st0{opacity:0.79;}
	.st1{fill:#232222;}
</style>
<title>Artboard 1</title>
<g class="st0">
	
		<rect x="158.4" y="-22.9" transform="matrix(0.8572 -0.515 0.515 0.8572 -24.9316 97.9367)" class="st1" width="11.4" height="233.6"/>
	<polygon class="st1" points="216.7,17.4 248.3,69.9 292.3,-3.3 282.5,-9.1 248.3,47.9 216.7,-4.6 185.2,47.9 150.9,-9.1 
		141.2,-3.3 185.2,69.9 	"/>
	<polygon class="st1" points="366.7,-9.1 248.3,187.9 191.8,93.9 195.7,87.4 248.3,175 355.4,-3.3 345.6,-9.1 248.3,152.9 
		202.3,76.4 206.2,69.9 248.3,140 334.3,-3.3 324.6,-9.1 248.3,117.9 212.8,58.9 216.7,52.4 248.3,104.9 313.3,-3.3 303.6,-9.1 
		248.3,82.9 216.7,30.4 185.2,82.9 129.9,-9.1 120.1,-3.3 180.3,96.8 240.4,197 248.3,192.2 256.1,197 376.4,-3.3 	"/>
	<polygon class="st1" points="271.2,-3.3 261.5,-9.1 248.3,12.9 235.1,-9.1 225.3,-3.3 248.3,34.9 	"/>
	<polygon class="st1" points="208.1,-3.3 198.4,-9.1 185.2,12.9 172,-9.1 162.2,-3.3 185.2,34.9 	"/>
	
		<rect x="215.6" y="88.2" transform="matrix(0.515 -0.8572 0.8572 0.515 80.7073 330.4854)" class="st1" width="233.6" height="11.4"/>
	
		<rect x="74.3" y="-22.9" transform="matrix(0.8572 -0.515 0.515 0.8572 -36.9513 54.596)" class="st1" width="11.4" height="233.6"/>
	
		<rect x="95.3" y="-22.9" transform="matrix(0.8572 -0.515 0.515 0.8572 -33.9472 65.4353)" class="st1" width="11.4" height="233.6"/>
	
		<rect x="116.3" y="-22.9" transform="matrix(0.8572 -0.515 0.515 0.8572 -30.9433 76.2645)" class="st1" width="11.4" height="233.6"/>
	
		<rect x="137.4" y="-22.9" transform="matrix(0.8572 -0.515 0.515 0.8572 -27.9393 87.1039)" class="st1" width="11.4" height="233.6"/>
	
		<rect x="-9.9" y="-22.9" transform="matrix(0.8572 -0.515 0.515 0.8572 -48.9709 11.2552)" class="st1" width="11.4" height="233.6"/>
	
		<rect x="11.2" y="-22.9" transform="matrix(0.8572 -0.515 0.515 0.8572 -45.9669 22.0946)" class="st1" width="11.4" height="233.6"/>
	
		<rect x="32.2" y="-22.9" transform="matrix(0.8572 -0.515 0.515 0.8572 -42.963 32.9238)" class="st1" width="11.4" height="233.6"/>
	
		<rect x="53.2" y="-22.9" transform="matrix(0.8572 -0.515 0.515 0.8572 -39.959 43.7632)" class="st1" width="11.4" height="233.6"/>
	
		<rect x="280.5" y="87.5" transform="matrix(0.5174 -0.8557 0.8557 0.5174 112.2759 385.4678)" class="st1" width="234.7" height="11.4"/>
	
		<rect x="257.7" y="88.2" transform="matrix(0.515 -0.8572 0.8572 0.515 101.1009 366.5488)" class="st1" width="233.6" height="11.4"/>
	
		<rect x="236.7" y="88.2" transform="matrix(0.515 -0.8572 0.8572 0.515 90.9034 348.5145)" class="st1" width="233.6" height="11.4"/>
</g>
</svg>
