<?xml version="1.0" encoding="utf-8"?>
<!-- Generator: Adobe Illustrator 22.0.1, SVG Export Plug-In . SVG Version: 6.00 Build 0)  -->
<svg version="1.1" id="Pattern" xmlns="http://www.w3.org/2000/svg" xmlns:xlink="http://www.w3.org/1999/xlink" x="0px" y="0px"
	 viewBox="0 0 1280 400" style="enable-background:new 0 0 1280 400;" xml:space="preserve">
<style type="text/css">
	.st0{opacity:0.57;}
	.st1{fill:#F8BE25;}
</style>
<title>WVU pattern on a gold background</title>
<g class="st0">
	<path class="st1" d="M1201.3,0L933.7,400h83.4L1280,7V0H1201.3z M437.9,350.6L404.9,400h65.9L437.9,350.6z M503.9,251.6L462.3,314
		l57.4,86h83.2L503.9,251.6z M884.2,400L1151,0h-83.2L801,400H884.2z"/>
	<path class="st1" d="M479.5,215l24.4-36.6L651.7,400h100.5L1019,0h-83.2L701.9,350.6l-198-296.9l-198,296.9L72,0H0v16.9L255.6,400
		h100.5l68.7-103.1L479.5,215L479.5,215z"/>
	<path class="st1" d="M490.9,0h-83.2L305.8,152.7L204.2,0h-83l184.6,277.4L490.9,0z M701.9,277.4L887,0h-83.2L701.9,152.7L600.1,0
		h-83.2L701.9,277.4z"/>
</g>
</svg>
