<svg id="Layer_1" data-name="Layer 1" xmlns="http://www.w3.org/2000/svg" viewBox="0 0 447.31 189.77"><defs><style>.cls-1{fill:#6c6a6a;}</style></defs><title>Artboard 1</title><rect class="cls-1" x="186.61" y="-22.87" width="11.36" height="233.58" transform="translate(-20.91 112.45) rotate(-31)"/><polygon class="cls-1" points="244.89 17.42 276.44 69.94 320.43 -3.26 310.69 -9.11 276.44 47.88 244.89 -4.64 213.33 47.88 179.09 -9.11 169.35 -3.26 213.33 69.94 244.89 17.42"/><polygon class="cls-1" points="394.84 -9.11 276.44 187.93 219.96 93.92 223.85 87.45 276.44 174.98 383.54 -3.26 373.8 -9.11 276.44 152.92 230.48 76.42 234.37 69.94 276.44 139.97 362.5 -3.26 352.76 -9.11 276.44 117.9 241 58.91 244.89 52.44 276.44 104.95 341.47 -3.26 331.73 -9.11 276.44 82.89 244.89 30.37 213.33 82.89 158.05 -9.11 148.31 -3.26 208.46 96.85 268.61 196.96 276.44 192.25 284.28 196.96 404.58 -3.26 394.84 -9.11"/><polygon class="cls-1" points="299.39 -3.26 289.65 -9.11 276.44 12.87 263.24 -9.11 253.5 -3.26 276.44 34.93 299.39 -3.26"/><polygon class="cls-1" points="236.28 -3.26 226.54 -9.11 213.33 12.87 200.13 -9.11 190.38 -3.26 213.33 34.93 236.28 -3.26"/><rect class="cls-1" x="243.81" y="88.24" width="233.58" height="11.36" transform="translate(94.37 354.64) rotate(-59)"/><rect class="cls-1" x="102.46" y="-22.87" width="11.36" height="233.58" transform="translate(-32.93 69.11) rotate(-31)"/><rect class="cls-1" x="123.5" y="-22.87" width="11.36" height="233.58" transform="translate(-29.92 79.95) rotate(-31)"/><rect class="cls-1" x="144.53" y="-22.87" width="11.36" height="233.58" transform="translate(-26.92 90.78) rotate(-31)"/><rect class="cls-1" x="165.57" y="-22.87" width="11.36" height="233.58" transform="translate(-23.91 101.62) rotate(-31)"/><rect class="cls-1" x="18.31" y="-22.87" width="11.36" height="233.58" transform="translate(-44.95 25.77) rotate(-31)"/><rect class="cls-1" x="39.35" y="-22.87" width="11.36" height="233.58" transform="translate(-41.94 36.61) rotate(-31)"/><rect class="cls-1" x="60.38" y="-22.87" width="11.36" height="233.58" transform="translate(-38.94 47.44) rotate(-31)"/><rect class="cls-1" x="81.42" y="-22.87" width="11.36" height="233.58" transform="translate(-35.93 58.28) rotate(-31)"/><rect class="cls-1" x="306.92" y="88.24" width="233.58" height="11.36" transform="matrix(0.52, -0.86, 0.86, 0.52, 124.98, 408.74)"/><rect class="cls-1" x="285.88" y="88.24" width="233.58" height="11.36" transform="translate(114.77 390.71) rotate(-59)"/><rect class="cls-1" x="264.84" y="88.24" width="233.58" height="11.36" transform="translate(104.57 372.67) rotate(-59)"/></svg>