<?xml version="1.0" encoding="utf-8"?>
<!-- Generator: Adobe Illustrator 22.0.1, SVG Export Plug-In . SVG Version: 6.00 Build 0)  -->
<svg version="1.1" id="Layer_1" xmlns="http://www.w3.org/2000/svg" xmlns:xlink="http://www.w3.org/1999/xlink" x="0px" y="0px"
	 viewBox="0 0 386.2 138.6" style="enable-background:new 0 0 386.2 138.6;" xml:space="preserve">
<style type="text/css">
	.st0{opacity:0.79;}
	.st1{fill:#00396F;}
</style>
<title>Artboard 1</title>
<g class="st0">
	
		<rect x="156.7" y="-22.9" transform="matrix(0.8572 -0.515 0.515 0.8572 -25.1733 97.0649)" class="st1" width="11.4" height="233.6"/>
	<polygon class="st1" points="215,17.4 246.6,69.9 290.6,-3.3 280.8,-9.1 246.6,47.9 215,-4.6 183.5,47.9 149.2,-9.1 139.5,-3.3 
		183.5,69.9 	"/>
	<polygon class="st1" points="365,-9.1 246.6,187.9 190.1,93.9 194,87.4 246.6,175 353.7,-3.3 343.9,-9.1 246.6,152.9 200.6,76.4 
		204.5,69.9 246.6,140 332.6,-3.3 322.9,-9.1 246.6,117.9 211.1,58.9 215,52.4 246.6,104.9 311.6,-3.3 301.9,-9.1 246.6,82.9 
		215,30.4 183.5,82.9 128.2,-9.1 118.4,-3.3 178.6,96.8 238.7,197 246.6,192.2 254.4,197 374.7,-3.3 	"/>
	<polygon class="st1" points="269.5,-3.3 259.8,-9.1 246.6,12.9 233.4,-9.1 223.6,-3.3 246.6,34.9 	"/>
	<polygon class="st1" points="206.4,-3.3 196.7,-9.1 183.5,12.9 170.3,-9.1 160.5,-3.3 183.5,34.9 	"/>
	
		<rect x="213.9" y="88.2" transform="matrix(0.515 -0.8572 0.8572 0.515 79.8864 329.0345)" class="st1" width="233.6" height="11.4"/>
	
		<rect x="72.6" y="-22.9" transform="matrix(0.8572 -0.515 0.515 0.8572 -37.193 53.7241)" class="st1" width="11.4" height="233.6"/>
	
		<rect x="93.6" y="-22.9" transform="matrix(0.8572 -0.515 0.515 0.8572 -34.189 64.5635)" class="st1" width="11.4" height="233.6"/>
	
		<rect x="114.7" y="-22.9" transform="matrix(0.8572 -0.515 0.515 0.8572 -31.1851 75.3927)" class="st1" width="11.4" height="233.6"/>
	
		<rect x="135.7" y="-22.9" transform="matrix(0.8572 -0.515 0.515 0.8572 -28.1811 86.232)" class="st1" width="11.4" height="233.6"/>
	
		<rect x="-11.6" y="-22.9" transform="matrix(0.8572 -0.515 0.515 0.8572 -49.2127 10.3834)" class="st1" width="11.4" height="233.6"/>
	
		<rect x="9.5" y="-22.9" transform="matrix(0.8572 -0.515 0.515 0.8572 -46.2087 21.2228)" class="st1" width="11.4" height="233.6"/>
	
		<rect x="30.5" y="-22.9" transform="matrix(0.8572 -0.515 0.515 0.8572 -43.2048 32.0519)" class="st1" width="11.4" height="233.6"/>
	
		<rect x="51.6" y="-22.9" transform="matrix(0.8572 -0.515 0.515 0.8572 -40.2008 42.8913)" class="st1" width="11.4" height="233.6"/>
	
		<rect x="278.8" y="87.5" transform="matrix(0.5174 -0.8557 0.8557 0.5174 111.459 384.0193)" class="st1" width="234.7" height="11.4"/>
	<rect x="256" y="88.2" transform="matrix(0.515 -0.8572 0.8572 0.515 100.28 365.0978)" class="st1" width="233.6" height="11.4"/>
	
		<rect x="235" y="88.2" transform="matrix(0.515 -0.8572 0.8572 0.515 90.0825 347.0636)" class="st1" width="233.6" height="11.4"/>
</g>
</svg>
